<?xml version="1.0" encoding="utf-8"?>
<!-- Generator: Adobe Illustrator 19.0.0, SVG Export Plug-In . SVG Version: 6.00 Build 0)  -->
<svg version="1.1" id="Layer_1" xmlns="http://www.w3.org/2000/svg" xmlns:xlink="http://www.w3.org/1999/xlink" x="0px" y="0px"
	 viewBox="0 0 80 80" style="enable-background:new 0 0 80 80;" xml:space="preserve">
<style type="text/css">
	.st0{fill:#FFFFFF;}
</style>
<g>
	<g>
		<g>
			<path class="st0" d="M2,56.4V23.6C2,11.7,11.7,2,23.6,2h32.8C68.3,2,78,11.7,78,23.6v32.8C78,68.3,68.3,78,56.4,78H23.6
				C11.7,78,2,68.3,2,56.4z M71.5,23.6c0-8.3-6.8-15.1-15.1-15.1H23.6c-8.3,0-15.1,6.8-15.1,15.1v32.8c0,8.3,6.8,15.1,15.1,15.1
				h32.8c8.3,0,15.1-6.8,15.1-15.1L71.5,23.6L71.5,23.6z"/>
		</g>
		<g>
			<path class="st0" d="M20.5,40c0-10.7,8.7-19.5,19.5-19.5c10.7,0,19.5,8.7,19.5,19.5S50.8,59.5,40,59.5
				C29.3,59.5,20.5,50.7,20.5,40z M53,40c0-7.1-5.8-13-13-13c-7.1,0-13,5.8-13,13s5.8,13,13,13C47.1,53,53,47.1,53,40z"/>
		</g>
		<g>
			<circle class="st0" cx="55" cy="55.9" r="4.7"/>
		</g>
	</g>
</g>
</svg>
